<?xml version="1.0" encoding="UTF-8"?>
<svg 
  width="512" 
  height="512" 
  viewBox="0 0 512 512"
  xmlns="http://www.w3.org/2000/svg"
>
  <defs>
    <clipPath id="innerCircle">
      <circle cx="256" cy="256" r="190" />
    </clipPath>
  </defs>

  <!-- Outer green ring (Capital O) -->
  <circle 
    cx="256" 
    cy="256" 
    r="256" 
    fill="#10b981"
  />

  <!-- Dark inner background -->
  <circle 
    cx="256" 
    cy="256" 
    r="190" 
    fill="#0f172a"
  />

  <!-- Cubes (clipped to inner circle) -->
  <g clip-path="url(#innerCircle)">
    <g>
    <polygon 
      points="193.648,22 224.82399999999998,31 193.648,40 162.472,31"
      fill="#FFF100"
      stroke="#64748b" stroke-width="0.5"
    />
    <polygon 
      points="162.472,31 193.648,40 193.648,58 162.472,49"
      fill="#d9cd00"
      stroke="#64748b" stroke-width="0.5"
    />
    <polygon 
      points="193.648,40 224.82399999999998,31 224.82399999999998,49 193.648,58"
      fill="#b3a900"
      stroke="#64748b" stroke-width="0.5"
    /></g>
    <g>
    <polygon 
      points="256,22 287.176,31 256,40 224.824,31"
      fill="#627EEA"
      stroke="#64748b" stroke-width="0.5"
    />
    <polygon 
      points="224.824,31 256,40 256,58 224.824,49"
      fill="#5469c7"
      stroke="#64748b" stroke-width="0.5"
    />
    <polygon 
      points="256,40 287.176,31 287.176,49 256,58"
      fill="#4254a4"
      stroke="#64748b" stroke-width="0.5"
    /></g>
    <g>
    <polygon 
      points="318.352,22 349.52799999999996,31 318.352,40 287.176,31"
      fill="#627EEA"
      stroke="#64748b" stroke-width="0.5"
    />
    <polygon 
      points="287.176,31 318.352,40 318.352,58 287.176,49"
      fill="#5469c7"
      stroke="#64748b" stroke-width="0.5"
    />
    <polygon 
      points="318.352,40 349.52799999999996,31 349.52799999999996,49 318.352,58"
      fill="#4254a4"
      stroke="#64748b" stroke-width="0.5"
    /></g>
    <g>
    <polygon 
      points="162.472,49 193.648,58 162.472,67 131.29600000000002,58"
      fill="#0052FF"
      stroke="#64748b" stroke-width="0.5"
    />
    <polygon 
      points="131.29600000000002,58 162.472,67 162.472,85 131.29600000000002,76"
      fill="#0046d9"
      stroke="#64748b" stroke-width="0.5"
    />
    <polygon 
      points="162.472,67 193.648,58 193.648,76 162.472,85"
      fill="#003ab3"
      stroke="#64748b" stroke-width="0.5"
    /></g>
    <g>
    <polygon 
      points="224.824,49 256,58 224.824,67 193.64800000000002,58"
      fill="#FFF100"
      stroke="#64748b" stroke-width="0.5"
    />
    <polygon 
      points="193.64800000000002,58 224.824,67 224.824,85 193.64800000000002,76"
      fill="#d9cd00"
      stroke="#64748b" stroke-width="0.5"
    />
    <polygon 
      points="224.824,67 256,58 256,76 224.824,85"
      fill="#b3a900"
      stroke="#64748b" stroke-width="0.5"
    /></g>
    <g>
    <polygon 
      points="287.176,49 318.352,58 287.176,67 256,58"
      fill="#FFF100"
      stroke="#64748b" stroke-width="0.5"
    />
    <polygon 
      points="256,58 287.176,67 287.176,85 256,76"
      fill="#d9cd00"
      stroke="#64748b" stroke-width="0.5"
    />
    <polygon 
      points="287.176,67 318.352,58 318.352,76 287.176,85"
      fill="#b3a900"
      stroke="#64748b" stroke-width="0.5"
    /></g>
    <g>
    <polygon 
      points="349.528,49 380.704,58 349.528,67 318.35200000000003,58"
      fill="#627EEA"
      stroke="#64748b" stroke-width="0.5"
    />
    <polygon 
      points="318.35200000000003,58 349.528,67 349.528,85 318.35200000000003,76"
      fill="#5469c7"
      stroke="#64748b" stroke-width="0.5"
    />
    <polygon 
      points="349.528,67 380.704,58 380.704,76 349.528,85"
      fill="#4254a4"
      stroke="#64748b" stroke-width="0.5"
    /></g>
    <g>
    <polygon 
      points="131.296,76 162.47199999999998,85 131.296,94 100.11999999999999,85"
      fill="#FF0420"
      stroke="#64748b" stroke-width="0.5"
    />
    <polygon 
      points="100.11999999999999,85 131.296,94 131.296,112 100.11999999999999,103"
      fill="#d9031b"
      stroke="#64748b" stroke-width="0.5"
    />
    <polygon 
      points="131.296,94 162.47199999999998,85 162.47199999999998,103 131.296,112"
      fill="#b30316"
      stroke="#64748b" stroke-width="0.5"
    /></g>
    <g>
    <polygon 
      points="193.648,76 224.82399999999998,85 193.648,94 162.472,85"
      fill="#FFF100"
      stroke="#64748b" stroke-width="0.5"
    />
    <polygon 
      points="162.472,85 193.648,94 193.648,112 162.472,103"
      fill="#d9cd00"
      stroke="#64748b" stroke-width="0.5"
    />
    <polygon 
      points="193.648,94 224.82399999999998,85 224.82399999999998,103 193.648,112"
      fill="#b3a900"
      stroke="#64748b" stroke-width="0.5"
    /></g>
    <g>
    <polygon 
      points="256,76 287.176,85 256,94 224.824,85"
      fill="#FF0420"
      stroke="#64748b" stroke-width="0.5"
    />
    <polygon 
      points="224.824,85 256,94 256,112 224.824,103"
      fill="#d9031b"
      stroke="#64748b" stroke-width="0.5"
    />
    <polygon 
      points="256,94 287.176,85 287.176,103 256,112"
      fill="#b30316"
      stroke="#64748b" stroke-width="0.5"
    /></g>
    <g>
    <polygon 
      points="318.352,76 349.52799999999996,85 318.352,94 287.176,85"
      fill="#28A0F0"
      stroke="#64748b" stroke-width="0.5"
    />
    <polygon 
      points="287.176,85 318.352,94 318.352,112 287.176,103"
      fill="#2288cc"
      stroke="#64748b" stroke-width="0.5"
    />
    <polygon 
      points="318.352,94 349.52799999999996,85 349.52799999999996,103 318.352,112"
      fill="#1c70a8"
      stroke="#64748b" stroke-width="0.5"
    /></g>
    <g>
    <polygon 
      points="380.704,76 411.88,85 380.704,94 349.528,85"
      fill="#627EEA"
      stroke="#64748b" stroke-width="0.5"
    />
    <polygon 
      points="349.528,85 380.704,94 380.704,112 349.528,103"
      fill="#5469c7"
      stroke="#64748b" stroke-width="0.5"
    />
    <polygon 
      points="380.704,94 411.88,85 411.88,103 380.704,112"
      fill="#4254a4"
      stroke="#64748b" stroke-width="0.5"
    /></g>
    <g>
    <polygon 
      points="100.11999999999999,103 131.296,112 100.11999999999999,121 68.94399999999999,112"
      fill="#28A0F0"
      stroke="#64748b" stroke-width="0.5"
    />
    <polygon 
      points="68.94399999999999,112 100.11999999999999,121 100.11999999999999,139 68.94399999999999,130"
      fill="#2288cc"
      stroke="#64748b" stroke-width="0.5"
    />
    <polygon 
      points="100.11999999999999,121 131.296,112 131.296,130 100.11999999999999,139"
      fill="#1c70a8"
      stroke="#64748b" stroke-width="0.5"
    /></g>
    <g>
    <polygon 
      points="162.472,103 193.648,112 162.472,121 131.29600000000002,112"
      fill="#627EEA"
      stroke="#64748b" stroke-width="0.5"
    />
    <polygon 
      points="131.29600000000002,112 162.472,121 162.472,139 131.29600000000002,130"
      fill="#5469c7"
      stroke="#64748b" stroke-width="0.5"
    />
    <polygon 
      points="162.472,121 193.648,112 193.648,130 162.472,139"
      fill="#4254a4"
      stroke="#64748b" stroke-width="0.5"
    /></g>
    <g>
    <polygon 
      points="224.824,103 256,112 224.824,121 193.64800000000002,112"
      fill="#627EEA"
      stroke="#64748b" stroke-width="0.5"
    />
    <polygon 
      points="193.64800000000002,112 224.824,121 224.824,139 193.64800000000002,130"
      fill="#5469c7"
      stroke="#64748b" stroke-width="0.5"
    />
    <polygon 
      points="224.824,121 256,112 256,130 224.824,139"
      fill="#4254a4"
      stroke="#64748b" stroke-width="0.5"
    /></g>
    <g>
    <polygon 
      points="287.176,103 318.352,112 287.176,121 256,112"
      fill="#627EEA"
      stroke="#64748b" stroke-width="0.5"
    />
    <polygon 
      points="256,112 287.176,121 287.176,139 256,130"
      fill="#5469c7"
      stroke="#64748b" stroke-width="0.5"
    />
    <polygon 
      points="287.176,121 318.352,112 318.352,130 287.176,139"
      fill="#4254a4"
      stroke="#64748b" stroke-width="0.5"
    /></g>
    <g>
    <polygon 
      points="349.528,103 380.704,112 349.528,121 318.35200000000003,112"
      fill="#627EEA"
      stroke="#64748b" stroke-width="0.5"
    />
    <polygon 
      points="318.35200000000003,112 349.528,121 349.528,139 318.35200000000003,130"
      fill="#5469c7"
      stroke="#64748b" stroke-width="0.5"
    />
    <polygon 
      points="349.528,121 380.704,112 380.704,130 349.528,139"
      fill="#4254a4"
      stroke="#64748b" stroke-width="0.5"
    /></g>
    <g>
    <polygon 
      points="411.88,103 443.056,112 411.88,121 380.704,112"
      fill="#28A0F0"
      stroke="#64748b" stroke-width="0.5"
    />
    <polygon 
      points="380.704,112 411.88,121 411.88,139 380.704,130"
      fill="#2288cc"
      stroke="#64748b" stroke-width="0.5"
    />
    <polygon 
      points="411.88,121 443.056,112 443.056,130 411.88,139"
      fill="#1c70a8"
      stroke="#64748b" stroke-width="0.5"
    /></g>
    <g>
    <polygon 
      points="68.94400000000002,130 100.12000000000002,139 68.94400000000002,148 37.768000000000015,139"
      fill="#FF0420"
      stroke="#64748b" stroke-width="0.5"
    />
    <polygon 
      points="37.768000000000015,139 68.94400000000002,148 68.94400000000002,166 37.768000000000015,157"
      fill="#d9031b"
      stroke="#64748b" stroke-width="0.5"
    />
    <polygon 
      points="68.94400000000002,148 100.12000000000002,139 100.12000000000002,157 68.94400000000002,166"
      fill="#b30316"
      stroke="#64748b" stroke-width="0.5"
    /></g>
    <g>
    <polygon 
      points="131.296,130 162.47199999999998,139 131.296,148 100.11999999999999,139"
      fill="#FF0420"
      stroke="#64748b" stroke-width="0.5"
    />
    <polygon 
      points="100.11999999999999,139 131.296,148 131.296,166 100.11999999999999,157"
      fill="#d9031b"
      stroke="#64748b" stroke-width="0.5"
    />
    <polygon 
      points="131.296,148 162.47199999999998,139 162.47199999999998,157 131.296,166"
      fill="#b30316"
      stroke="#64748b" stroke-width="0.5"
    /></g>
    <g>
    <polygon 
      points="193.648,130 224.82399999999998,139 193.648,148 162.472,139"
      fill="#627EEA"
      stroke="#64748b" stroke-width="0.5"
    />
    <polygon 
      points="162.472,139 193.648,148 193.648,166 162.472,157"
      fill="#5469c7"
      stroke="#64748b" stroke-width="0.5"
    />
    <polygon 
      points="193.648,148 224.82399999999998,139 224.82399999999998,157 193.648,166"
      fill="#4254a4"
      stroke="#64748b" stroke-width="0.5"
    /></g>
    <g>
    <polygon 
      points="256,130 287.176,139 256,148 224.824,139"
      fill="#627EEA"
      stroke="#64748b" stroke-width="0.5"
    />
    <polygon 
      points="224.824,139 256,148 256,166 224.824,157"
      fill="#5469c7"
      stroke="#64748b" stroke-width="0.5"
    />
    <polygon 
      points="256,148 287.176,139 287.176,157 256,166"
      fill="#4254a4"
      stroke="#64748b" stroke-width="0.5"
    /></g>
    <g>
    <polygon 
      points="318.352,130 349.52799999999996,139 318.352,148 287.176,139"
      fill="#28A0F0"
      stroke="#64748b" stroke-width="0.5"
    />
    <polygon 
      points="287.176,139 318.352,148 318.352,166 287.176,157"
      fill="#2288cc"
      stroke="#64748b" stroke-width="0.5"
    />
    <polygon 
      points="318.352,148 349.52799999999996,139 349.52799999999996,157 318.352,166"
      fill="#1c70a8"
      stroke="#64748b" stroke-width="0.5"
    /></g>
    <g>
    <polygon 
      points="380.704,130 411.88,139 380.704,148 349.528,139"
      fill="#627EEA"
      stroke="#64748b" stroke-width="0.5"
    />
    <polygon 
      points="349.528,139 380.704,148 380.704,166 349.528,157"
      fill="#5469c7"
      stroke="#64748b" stroke-width="0.5"
    />
    <polygon 
      points="380.704,148 411.88,139 411.88,157 380.704,166"
      fill="#4254a4"
      stroke="#64748b" stroke-width="0.5"
    /></g>
    <g>
    <polygon 
      points="443.056,130 474.23199999999997,139 443.056,148 411.88,139"
      fill="#627EEA"
      stroke="#64748b" stroke-width="0.5"
    />
    <polygon 
      points="411.88,139 443.056,148 443.056,166 411.88,157"
      fill="#5469c7"
      stroke="#64748b" stroke-width="0.5"
    />
    <polygon 
      points="443.056,148 474.23199999999997,139 474.23199999999997,157 443.056,166"
      fill="#4254a4"
      stroke="#64748b" stroke-width="0.5"
    /></g>
    <g>
    <polygon 
      points="100.11999999999999,157 131.296,166 100.11999999999999,175 68.94399999999999,166"
      fill="#627EEA"
      stroke="#64748b" stroke-width="0.5"
    />
    <polygon 
      points="68.94399999999999,166 100.11999999999999,175 100.11999999999999,193 68.94399999999999,184"
      fill="#5469c7"
      stroke="#64748b" stroke-width="0.5"
    />
    <polygon 
      points="100.11999999999999,175 131.296,166 131.296,184 100.11999999999999,193"
      fill="#4254a4"
      stroke="#64748b" stroke-width="0.5"
    /></g>
    <g>
    <polygon 
      points="162.472,157 193.648,166 162.472,175 131.29600000000002,166"
      fill="#0052FF"
      stroke="#64748b" stroke-width="0.5"
    />
    <polygon 
      points="131.29600000000002,166 162.472,175 162.472,193 131.29600000000002,184"
      fill="#0046d9"
      stroke="#64748b" stroke-width="0.5"
    />
    <polygon 
      points="162.472,175 193.648,166 193.648,184 162.472,193"
      fill="#003ab3"
      stroke="#64748b" stroke-width="0.5"
    /></g>
    <g>
    <polygon 
      points="224.824,157 256,166 224.824,175 193.64800000000002,166"
      fill="#FF0420"
      stroke="#64748b" stroke-width="0.5"
    />
    <polygon 
      points="193.64800000000002,166 224.824,175 224.824,193 193.64800000000002,184"
      fill="#d9031b"
      stroke="#64748b" stroke-width="0.5"
    />
    <polygon 
      points="224.824,175 256,166 256,184 224.824,193"
      fill="#b30316"
      stroke="#64748b" stroke-width="0.5"
    /></g>
    <g>
    <polygon 
      points="287.176,157 318.352,166 287.176,175 256,166"
      fill="#627EEA"
      stroke="#64748b" stroke-width="0.5"
    />
    <polygon 
      points="256,166 287.176,175 287.176,193 256,184"
      fill="#5469c7"
      stroke="#64748b" stroke-width="0.5"
    />
    <polygon 
      points="287.176,175 318.352,166 318.352,184 287.176,193"
      fill="#4254a4"
      stroke="#64748b" stroke-width="0.5"
    /></g>
    <g>
    <polygon 
      points="349.528,157 380.704,166 349.528,175 318.35200000000003,166"
      fill="#627EEA"
      stroke="#64748b" stroke-width="0.5"
    />
    <polygon 
      points="318.35200000000003,166 349.528,175 349.528,193 318.35200000000003,184"
      fill="#5469c7"
      stroke="#64748b" stroke-width="0.5"
    />
    <polygon 
      points="349.528,175 380.704,166 380.704,184 349.528,193"
      fill="#4254a4"
      stroke="#64748b" stroke-width="0.5"
    /></g>
    <g>
    <polygon 
      points="411.88,157 443.056,166 411.88,175 380.704,166"
      fill="#FF0420"
      stroke="#64748b" stroke-width="0.5"
    />
    <polygon 
      points="380.704,166 411.88,175 411.88,193 380.704,184"
      fill="#d9031b"
      stroke="#64748b" stroke-width="0.5"
    />
    <polygon 
      points="411.88,175 443.056,166 443.056,184 411.88,193"
      fill="#b30316"
      stroke="#64748b" stroke-width="0.5"
    /></g>
    <g>
    <polygon 
      points="68.94400000000002,184 100.12000000000002,193 68.94400000000002,202 37.768000000000015,193"
      fill="#627EEA"
      stroke="#64748b" stroke-width="0.5"
    />
    <polygon 
      points="37.768000000000015,193 68.94400000000002,202 68.94400000000002,220 37.768000000000015,211"
      fill="#5469c7"
      stroke="#64748b" stroke-width="0.5"
    />
    <polygon 
      points="68.94400000000002,202 100.12000000000002,193 100.12000000000002,211 68.94400000000002,220"
      fill="#4254a4"
      stroke="#64748b" stroke-width="0.5"
    /></g>
    <g>
    <polygon 
      points="131.296,184 162.47199999999998,193 131.296,202 100.11999999999999,193"
      fill="#627EEA"
      stroke="#64748b" stroke-width="0.5"
    />
    <polygon 
      points="100.11999999999999,193 131.296,202 131.296,220 100.11999999999999,211"
      fill="#5469c7"
      stroke="#64748b" stroke-width="0.5"
    />
    <polygon 
      points="131.296,202 162.47199999999998,193 162.47199999999998,211 131.296,220"
      fill="#4254a4"
      stroke="#64748b" stroke-width="0.5"
    /></g>
    <g>
    <polygon 
      points="193.648,184 224.82399999999998,193 193.648,202 162.472,193"
      fill="#627EEA"
      stroke="#64748b" stroke-width="0.5"
    />
    <polygon 
      points="162.472,193 193.648,202 193.648,220 162.472,211"
      fill="#5469c7"
      stroke="#64748b" stroke-width="0.5"
    />
    <polygon 
      points="193.648,202 224.82399999999998,193 224.82399999999998,211 193.648,220"
      fill="#4254a4"
      stroke="#64748b" stroke-width="0.5"
    /></g>
    <g>
    <polygon 
      points="256,184 287.176,193 256,202 224.824,193"
      fill="#627EEA"
      stroke="#64748b" stroke-width="0.5"
    />
    <polygon 
      points="224.824,193 256,202 256,220 224.824,211"
      fill="#5469c7"
      stroke="#64748b" stroke-width="0.5"
    />
    <polygon 
      points="256,202 287.176,193 287.176,211 256,220"
      fill="#4254a4"
      stroke="#64748b" stroke-width="0.5"
    /></g>
    <g>
    <polygon 
      points="318.352,184 349.52799999999996,193 318.352,202 287.176,193"
      fill="#627EEA"
      stroke="#64748b" stroke-width="0.5"
    />
    <polygon 
      points="287.176,193 318.352,202 318.352,220 287.176,211"
      fill="#5469c7"
      stroke="#64748b" stroke-width="0.5"
    />
    <polygon 
      points="318.352,202 349.52799999999996,193 349.52799999999996,211 318.352,220"
      fill="#4254a4"
      stroke="#64748b" stroke-width="0.5"
    /></g>
    <g>
    <polygon 
      points="380.704,184 411.88,193 380.704,202 349.528,193"
      fill="#0052FF"
      stroke="#64748b" stroke-width="0.5"
    />
    <polygon 
      points="349.528,193 380.704,202 380.704,220 349.528,211"
      fill="#0046d9"
      stroke="#64748b" stroke-width="0.5"
    />
    <polygon 
      points="380.704,202 411.88,193 411.88,211 380.704,220"
      fill="#003ab3"
      stroke="#64748b" stroke-width="0.5"
    /></g>
    <g>
    <polygon 
      points="443.056,184 474.23199999999997,193 443.056,202 411.88,193"
      fill="#627EEA"
      stroke="#64748b" stroke-width="0.5"
    />
    <polygon 
      points="411.88,193 443.056,202 443.056,220 411.88,211"
      fill="#5469c7"
      stroke="#64748b" stroke-width="0.5"
    />
    <polygon 
      points="443.056,202 474.23199999999997,193 474.23199999999997,211 443.056,220"
      fill="#4254a4"
      stroke="#64748b" stroke-width="0.5"
    /></g>
    <g>
    <polygon 
      points="37.768000000000015,211 68.94400000000002,220 37.768000000000015,229 6.5920000000000165,220"
      fill="#28A0F0"
      stroke="#64748b" stroke-width="0.5"
    />
    <polygon 
      points="6.5920000000000165,220 37.768000000000015,229 37.768000000000015,247 6.5920000000000165,238"
      fill="#2288cc"
      stroke="#64748b" stroke-width="0.5"
    />
    <polygon 
      points="37.768000000000015,229 68.94400000000002,220 68.94400000000002,238 37.768000000000015,247"
      fill="#1c70a8"
      stroke="#64748b" stroke-width="0.5"
    /></g>
    <g>
    <polygon 
      points="100.11999999999999,211 131.296,220 100.11999999999999,229 68.94399999999999,220"
      fill="#627EEA"
      stroke="#64748b" stroke-width="0.5"
    />
    <polygon 
      points="68.94399999999999,220 100.11999999999999,229 100.11999999999999,247 68.94399999999999,238"
      fill="#5469c7"
      stroke="#64748b" stroke-width="0.5"
    />
    <polygon 
      points="100.11999999999999,229 131.296,220 131.296,238 100.11999999999999,247"
      fill="#4254a4"
      stroke="#64748b" stroke-width="0.5"
    /></g>
    <g>
    <polygon 
      points="162.472,211 193.648,220 162.472,229 131.29600000000002,220"
      fill="#627EEA"
      stroke="#64748b" stroke-width="0.5"
    />
    <polygon 
      points="131.29600000000002,220 162.472,229 162.472,247 131.29600000000002,238"
      fill="#5469c7"
      stroke="#64748b" stroke-width="0.5"
    />
    <polygon 
      points="162.472,229 193.648,220 193.648,238 162.472,247"
      fill="#4254a4"
      stroke="#64748b" stroke-width="0.5"
    /></g>
    <g>
    <polygon 
      points="224.824,211 256,220 224.824,229 193.64800000000002,220"
      fill="#FF0420"
      stroke="#64748b" stroke-width="0.5"
    />
    <polygon 
      points="193.64800000000002,220 224.824,229 224.824,247 193.64800000000002,238"
      fill="#d9031b"
      stroke="#64748b" stroke-width="0.5"
    />
    <polygon 
      points="224.824,229 256,220 256,238 224.824,247"
      fill="#b30316"
      stroke="#64748b" stroke-width="0.5"
    /></g>
    <g>
    <polygon 
      points="287.176,211 318.352,220 287.176,229 256,220"
      fill="#FF0420"
      stroke="#64748b" stroke-width="0.5"
    />
    <polygon 
      points="256,220 287.176,229 287.176,247 256,238"
      fill="#d9031b"
      stroke="#64748b" stroke-width="0.5"
    />
    <polygon 
      points="287.176,229 318.352,220 318.352,238 287.176,247"
      fill="#b30316"
      stroke="#64748b" stroke-width="0.5"
    /></g>
    <g>
    <polygon 
      points="349.528,211 380.704,220 349.528,229 318.35200000000003,220"
      fill="#627EEA"
      stroke="#64748b" stroke-width="0.5"
    />
    <polygon 
      points="318.35200000000003,220 349.528,229 349.528,247 318.35200000000003,238"
      fill="#5469c7"
      stroke="#64748b" stroke-width="0.5"
    />
    <polygon 
      points="349.528,229 380.704,220 380.704,238 349.528,247"
      fill="#4254a4"
      stroke="#64748b" stroke-width="0.5"
    /></g>
    <g>
    <polygon 
      points="411.88,211 443.056,220 411.88,229 380.704,220"
      fill="#627EEA"
      stroke="#64748b" stroke-width="0.5"
    />
    <polygon 
      points="380.704,220 411.88,229 411.88,247 380.704,238"
      fill="#5469c7"
      stroke="#64748b" stroke-width="0.5"
    />
    <polygon 
      points="411.88,229 443.056,220 443.056,238 411.88,247"
      fill="#4254a4"
      stroke="#64748b" stroke-width="0.5"
    /></g>
    <g>
    <polygon 
      points="474.232,211 505.408,220 474.232,229 443.05600000000004,220"
      fill="#FF0420"
      stroke="#64748b" stroke-width="0.5"
    />
    <polygon 
      points="443.05600000000004,220 474.232,229 474.232,247 443.05600000000004,238"
      fill="#d9031b"
      stroke="#64748b" stroke-width="0.5"
    />
    <polygon 
      points="474.232,229 505.408,220 505.408,238 474.232,247"
      fill="#b30316"
      stroke="#64748b" stroke-width="0.5"
    /></g>
    <g>
    <polygon 
      points="68.94400000000002,238 100.12000000000002,247 68.94400000000002,256 37.768000000000015,247"
      fill="#FFF100"
      stroke="#64748b" stroke-width="0.5"
    />
    <polygon 
      points="37.768000000000015,247 68.94400000000002,256 68.94400000000002,274 37.768000000000015,265"
      fill="#d9cd00"
      stroke="#64748b" stroke-width="0.5"
    />
    <polygon 
      points="68.94400000000002,256 100.12000000000002,247 100.12000000000002,265 68.94400000000002,274"
      fill="#b3a900"
      stroke="#64748b" stroke-width="0.5"
    /></g>
    <g>
    <polygon 
      points="131.296,238 162.47199999999998,247 131.296,256 100.11999999999999,247"
      fill="#627EEA"
      stroke="#64748b" stroke-width="0.5"
    />
    <polygon 
      points="100.11999999999999,247 131.296,256 131.296,274 100.11999999999999,265"
      fill="#5469c7"
      stroke="#64748b" stroke-width="0.5"
    />
    <polygon 
      points="131.296,256 162.47199999999998,247 162.47199999999998,265 131.296,274"
      fill="#4254a4"
      stroke="#64748b" stroke-width="0.5"
    /></g>
    <g>
    <polygon 
      points="193.648,238 224.82399999999998,247 193.648,256 162.472,247"
      fill="#627EEA"
      stroke="#64748b" stroke-width="0.5"
    />
    <polygon 
      points="162.472,247 193.648,256 193.648,274 162.472,265"
      fill="#5469c7"
      stroke="#64748b" stroke-width="0.5"
    />
    <polygon 
      points="193.648,256 224.82399999999998,247 224.82399999999998,265 193.648,274"
      fill="#4254a4"
      stroke="#64748b" stroke-width="0.5"
    /></g>
    <g>
    <polygon 
      points="256,238 287.176,247 256,256 224.824,247"
      fill="#627EEA"
      stroke="#64748b" stroke-width="0.5"
    />
    <polygon 
      points="224.824,247 256,256 256,274 224.824,265"
      fill="#5469c7"
      stroke="#64748b" stroke-width="0.5"
    />
    <polygon 
      points="256,256 287.176,247 287.176,265 256,274"
      fill="#4254a4"
      stroke="#64748b" stroke-width="0.5"
    /></g>
    <g>
    <polygon 
      points="318.352,238 349.52799999999996,247 318.352,256 287.176,247"
      fill="#FFF100"
      stroke="#64748b" stroke-width="0.5"
    />
    <polygon 
      points="287.176,247 318.352,256 318.352,274 287.176,265"
      fill="#d9cd00"
      stroke="#64748b" stroke-width="0.5"
    />
    <polygon 
      points="318.352,256 349.52799999999996,247 349.52799999999996,265 318.352,274"
      fill="#b3a900"
      stroke="#64748b" stroke-width="0.5"
    /></g>
    <g>
    <polygon 
      points="380.704,238 411.88,247 380.704,256 349.528,247"
      fill="#627EEA"
      stroke="#64748b" stroke-width="0.5"
    />
    <polygon 
      points="349.528,247 380.704,256 380.704,274 349.528,265"
      fill="#5469c7"
      stroke="#64748b" stroke-width="0.5"
    />
    <polygon 
      points="380.704,256 411.88,247 411.88,265 380.704,274"
      fill="#4254a4"
      stroke="#64748b" stroke-width="0.5"
    /></g>
    <g>
    <polygon 
      points="443.056,238 474.23199999999997,247 443.056,256 411.88,247"
      fill="#FFF100"
      stroke="#64748b" stroke-width="0.5"
    />
    <polygon 
      points="411.88,247 443.056,256 443.056,274 411.88,265"
      fill="#d9cd00"
      stroke="#64748b" stroke-width="0.5"
    />
    <polygon 
      points="443.056,256 474.23199999999997,247 474.23199999999997,265 443.056,274"
      fill="#b3a900"
      stroke="#64748b" stroke-width="0.5"
    /></g>
    <g>
    <polygon 
      points="37.768000000000015,265 68.94400000000002,274 37.768000000000015,283 6.5920000000000165,274"
      fill="#627EEA"
      stroke="#64748b" stroke-width="0.5"
    />
    <polygon 
      points="6.5920000000000165,274 37.768000000000015,283 37.768000000000015,301 6.5920000000000165,292"
      fill="#5469c7"
      stroke="#64748b" stroke-width="0.5"
    />
    <polygon 
      points="37.768000000000015,283 68.94400000000002,274 68.94400000000002,292 37.768000000000015,301"
      fill="#4254a4"
      stroke="#64748b" stroke-width="0.5"
    /></g>
    <g>
    <polygon 
      points="100.12000000000002,265 131.29600000000002,274 100.12000000000002,283 68.94400000000002,274"
      fill="#627EEA"
      stroke="#64748b" stroke-width="0.5"
    />
    <polygon 
      points="68.94400000000002,274 100.12000000000002,283 100.12000000000002,301 68.94400000000002,292"
      fill="#5469c7"
      stroke="#64748b" stroke-width="0.5"
    />
    <polygon 
      points="100.12000000000002,283 131.29600000000002,274 131.29600000000002,292 100.12000000000002,301"
      fill="#4254a4"
      stroke="#64748b" stroke-width="0.5"
    /></g>
    <g>
    <polygon 
      points="162.47199999999998,265 193.64799999999997,274 162.47199999999998,283 131.296,274"
      fill="#627EEA"
      stroke="#64748b" stroke-width="0.5"
    />
    <polygon 
      points="131.296,274 162.47199999999998,283 162.47199999999998,301 131.296,292"
      fill="#5469c7"
      stroke="#64748b" stroke-width="0.5"
    />
    <polygon 
      points="162.47199999999998,283 193.64799999999997,274 193.64799999999997,292 162.47199999999998,301"
      fill="#4254a4"
      stroke="#64748b" stroke-width="0.5"
    /></g>
    <g>
    <polygon 
      points="224.82399999999998,265 255.99999999999997,274 224.82399999999998,283 193.648,274"
      fill="#627EEA"
      stroke="#64748b" stroke-width="0.5"
    />
    <polygon 
      points="193.648,274 224.82399999999998,283 224.82399999999998,301 193.648,292"
      fill="#5469c7"
      stroke="#64748b" stroke-width="0.5"
    />
    <polygon 
      points="224.82399999999998,283 255.99999999999997,274 255.99999999999997,292 224.82399999999998,301"
      fill="#4254a4"
      stroke="#64748b" stroke-width="0.5"
    /></g>
    <g>
    <polygon 
      points="287.176,265 318.352,274 287.176,283 256,274"
      fill="#0052FF"
      stroke="#64748b" stroke-width="0.5"
    />
    <polygon 
      points="256,274 287.176,283 287.176,301 256,292"
      fill="#0046d9"
      stroke="#64748b" stroke-width="0.5"
    />
    <polygon 
      points="287.176,283 318.352,274 318.352,292 287.176,301"
      fill="#003ab3"
      stroke="#64748b" stroke-width="0.5"
    /></g>
    <g>
    <polygon 
      points="349.52799999999996,265 380.70399999999995,274 349.52799999999996,283 318.352,274"
      fill="#627EEA"
      stroke="#64748b" stroke-width="0.5"
    />
    <polygon 
      points="318.352,274 349.52799999999996,283 349.52799999999996,301 318.352,292"
      fill="#5469c7"
      stroke="#64748b" stroke-width="0.5"
    />
    <polygon 
      points="349.52799999999996,283 380.70399999999995,274 380.70399999999995,292 349.52799999999996,301"
      fill="#4254a4"
      stroke="#64748b" stroke-width="0.5"
    /></g>
    <g>
    <polygon 
      points="411.88,265 443.056,274 411.88,283 380.704,274"
      fill="#627EEA"
      stroke="#64748b" stroke-width="0.5"
    />
    <polygon 
      points="380.704,274 411.88,283 411.88,301 380.704,292"
      fill="#5469c7"
      stroke="#64748b" stroke-width="0.5"
    />
    <polygon 
      points="411.88,283 443.056,274 443.056,292 411.88,301"
      fill="#4254a4"
      stroke="#64748b" stroke-width="0.5"
    /></g>
    <g>
    <polygon 
      points="474.23199999999997,265 505.40799999999996,274 474.23199999999997,283 443.056,274"
      fill="#627EEA"
      stroke="#64748b" stroke-width="0.5"
    />
    <polygon 
      points="443.056,274 474.23199999999997,283 474.23199999999997,301 443.056,292"
      fill="#5469c7"
      stroke="#64748b" stroke-width="0.5"
    />
    <polygon 
      points="474.23199999999997,283 505.40799999999996,274 505.40799999999996,292 474.23199999999997,301"
      fill="#4254a4"
      stroke="#64748b" stroke-width="0.5"
    /></g>
    <g>
    <polygon 
      points="68.94400000000002,292 100.12000000000002,301 68.94400000000002,310 37.768000000000015,301"
      fill="#627EEA"
      stroke="#64748b" stroke-width="0.5"
    />
    <polygon 
      points="37.768000000000015,301 68.94400000000002,310 68.94400000000002,328 37.768000000000015,319"
      fill="#5469c7"
      stroke="#64748b" stroke-width="0.5"
    />
    <polygon 
      points="68.94400000000002,310 100.12000000000002,301 100.12000000000002,319 68.94400000000002,328"
      fill="#4254a4"
      stroke="#64748b" stroke-width="0.5"
    /></g>
    <g>
    <polygon 
      points="131.296,292 162.47199999999998,301 131.296,310 100.11999999999999,301"
      fill="#FFF100"
      stroke="#64748b" stroke-width="0.5"
    />
    <polygon 
      points="100.11999999999999,301 131.296,310 131.296,328 100.11999999999999,319"
      fill="#d9cd00"
      stroke="#64748b" stroke-width="0.5"
    />
    <polygon 
      points="131.296,310 162.47199999999998,301 162.47199999999998,319 131.296,328"
      fill="#b3a900"
      stroke="#64748b" stroke-width="0.5"
    /></g>
    <g>
    <polygon 
      points="193.648,292 224.82399999999998,301 193.648,310 162.472,301"
      fill="#627EEA"
      stroke="#64748b" stroke-width="0.5"
    />
    <polygon 
      points="162.472,301 193.648,310 193.648,328 162.472,319"
      fill="#5469c7"
      stroke="#64748b" stroke-width="0.5"
    />
    <polygon 
      points="193.648,310 224.82399999999998,301 224.82399999999998,319 193.648,328"
      fill="#4254a4"
      stroke="#64748b" stroke-width="0.5"
    /></g>
    <g>
    <polygon 
      points="256,292 287.176,301 256,310 224.824,301"
      fill="#627EEA"
      stroke="#64748b" stroke-width="0.5"
    />
    <polygon 
      points="224.824,301 256,310 256,328 224.824,319"
      fill="#5469c7"
      stroke="#64748b" stroke-width="0.5"
    />
    <polygon 
      points="256,310 287.176,301 287.176,319 256,328"
      fill="#4254a4"
      stroke="#64748b" stroke-width="0.5"
    /></g>
    <g>
    <polygon 
      points="318.352,292 349.52799999999996,301 318.352,310 287.176,301"
      fill="#627EEA"
      stroke="#64748b" stroke-width="0.5"
    />
    <polygon 
      points="287.176,301 318.352,310 318.352,328 287.176,319"
      fill="#5469c7"
      stroke="#64748b" stroke-width="0.5"
    />
    <polygon 
      points="318.352,310 349.52799999999996,301 349.52799999999996,319 318.352,328"
      fill="#4254a4"
      stroke="#64748b" stroke-width="0.5"
    /></g>
    <g>
    <polygon 
      points="380.704,292 411.88,301 380.704,310 349.528,301"
      fill="#627EEA"
      stroke="#64748b" stroke-width="0.5"
    />
    <polygon 
      points="349.528,301 380.704,310 380.704,328 349.528,319"
      fill="#5469c7"
      stroke="#64748b" stroke-width="0.5"
    />
    <polygon 
      points="380.704,310 411.88,301 411.88,319 380.704,328"
      fill="#4254a4"
      stroke="#64748b" stroke-width="0.5"
    /></g>
    <g>
    <polygon 
      points="443.056,292 474.23199999999997,301 443.056,310 411.88,301"
      fill="#627EEA"
      stroke="#64748b" stroke-width="0.5"
    />
    <polygon 
      points="411.88,301 443.056,310 443.056,328 411.88,319"
      fill="#5469c7"
      stroke="#64748b" stroke-width="0.5"
    />
    <polygon 
      points="443.056,310 474.23199999999997,301 474.23199999999997,319 443.056,328"
      fill="#4254a4"
      stroke="#64748b" stroke-width="0.5"
    /></g>
    <g>
    <polygon 
      points="100.12000000000002,319 131.29600000000002,328 100.12000000000002,337 68.94400000000002,328"
      fill="#28A0F0"
      stroke="#64748b" stroke-width="0.5"
    />
    <polygon 
      points="68.94400000000002,328 100.12000000000002,337 100.12000000000002,355 68.94400000000002,346"
      fill="#2288cc"
      stroke="#64748b" stroke-width="0.5"
    />
    <polygon 
      points="100.12000000000002,337 131.29600000000002,328 131.29600000000002,346 100.12000000000002,355"
      fill="#1c70a8"
      stroke="#64748b" stroke-width="0.5"
    /></g>
    <g>
    <polygon 
      points="162.47199999999998,319 193.64799999999997,328 162.47199999999998,337 131.296,328"
      fill="#627EEA"
      stroke="#64748b" stroke-width="0.5"
    />
    <polygon 
      points="131.296,328 162.47199999999998,337 162.47199999999998,355 131.296,346"
      fill="#5469c7"
      stroke="#64748b" stroke-width="0.5"
    />
    <polygon 
      points="162.47199999999998,337 193.64799999999997,328 193.64799999999997,346 162.47199999999998,355"
      fill="#4254a4"
      stroke="#64748b" stroke-width="0.5"
    /></g>
    <g>
    <polygon 
      points="224.82399999999998,319 255.99999999999997,328 224.82399999999998,337 193.648,328"
      fill="#627EEA"
      stroke="#64748b" stroke-width="0.5"
    />
    <polygon 
      points="193.648,328 224.82399999999998,337 224.82399999999998,355 193.648,346"
      fill="#5469c7"
      stroke="#64748b" stroke-width="0.5"
    />
    <polygon 
      points="224.82399999999998,337 255.99999999999997,328 255.99999999999997,346 224.82399999999998,355"
      fill="#4254a4"
      stroke="#64748b" stroke-width="0.5"
    /></g>
    <g>
    <polygon 
      points="287.176,319 318.352,328 287.176,337 256,328"
      fill="#FF0420"
      stroke="#64748b" stroke-width="0.5"
    />
    <polygon 
      points="256,328 287.176,337 287.176,355 256,346"
      fill="#d9031b"
      stroke="#64748b" stroke-width="0.5"
    />
    <polygon 
      points="287.176,337 318.352,328 318.352,346 287.176,355"
      fill="#b30316"
      stroke="#64748b" stroke-width="0.5"
    /></g>
    <g>
    <polygon 
      points="349.52799999999996,319 380.70399999999995,328 349.52799999999996,337 318.352,328"
      fill="#627EEA"
      stroke="#64748b" stroke-width="0.5"
    />
    <polygon 
      points="318.352,328 349.52799999999996,337 349.52799999999996,355 318.352,346"
      fill="#5469c7"
      stroke="#64748b" stroke-width="0.5"
    />
    <polygon 
      points="349.52799999999996,337 380.70399999999995,328 380.70399999999995,346 349.52799999999996,355"
      fill="#4254a4"
      stroke="#64748b" stroke-width="0.5"
    /></g>
    <g>
    <polygon 
      points="411.88,319 443.056,328 411.88,337 380.704,328"
      fill="#FFF100"
      stroke="#64748b" stroke-width="0.5"
    />
    <polygon 
      points="380.704,328 411.88,337 411.88,355 380.704,346"
      fill="#d9cd00"
      stroke="#64748b" stroke-width="0.5"
    />
    <polygon 
      points="411.88,337 443.056,328 443.056,346 411.88,355"
      fill="#b3a900"
      stroke="#64748b" stroke-width="0.5"
    /></g>
    <g>
    <polygon 
      points="68.94400000000002,346 100.12000000000002,355 68.94400000000002,364 37.768000000000015,355"
      fill="#627EEA"
      stroke="#64748b" stroke-width="0.5"
    />
    <polygon 
      points="37.768000000000015,355 68.94400000000002,364 68.94400000000002,382 37.768000000000015,373"
      fill="#5469c7"
      stroke="#64748b" stroke-width="0.5"
    />
    <polygon 
      points="68.94400000000002,364 100.12000000000002,355 100.12000000000002,373 68.94400000000002,382"
      fill="#4254a4"
      stroke="#64748b" stroke-width="0.5"
    /></g>
    <g>
    <polygon 
      points="131.296,346 162.47199999999998,355 131.296,364 100.11999999999999,355"
      fill="#627EEA"
      stroke="#64748b" stroke-width="0.5"
    />
    <polygon 
      points="100.11999999999999,355 131.296,364 131.296,382 100.11999999999999,373"
      fill="#5469c7"
      stroke="#64748b" stroke-width="0.5"
    />
    <polygon 
      points="131.296,364 162.47199999999998,355 162.47199999999998,373 131.296,382"
      fill="#4254a4"
      stroke="#64748b" stroke-width="0.5"
    /></g>
    <g>
    <polygon 
      points="193.648,346 224.82399999999998,355 193.648,364 162.472,355"
      fill="#627EEA"
      stroke="#64748b" stroke-width="0.5"
    />
    <polygon 
      points="162.472,355 193.648,364 193.648,382 162.472,373"
      fill="#5469c7"
      stroke="#64748b" stroke-width="0.5"
    />
    <polygon 
      points="193.648,364 224.82399999999998,355 224.82399999999998,373 193.648,382"
      fill="#4254a4"
      stroke="#64748b" stroke-width="0.5"
    /></g>
    <g>
    <polygon 
      points="256,346 287.176,355 256,364 224.824,355"
      fill="#627EEA"
      stroke="#64748b" stroke-width="0.5"
    />
    <polygon 
      points="224.824,355 256,364 256,382 224.824,373"
      fill="#5469c7"
      stroke="#64748b" stroke-width="0.5"
    />
    <polygon 
      points="256,364 287.176,355 287.176,373 256,382"
      fill="#4254a4"
      stroke="#64748b" stroke-width="0.5"
    /></g>
    <g>
    <polygon 
      points="318.352,346 349.52799999999996,355 318.352,364 287.176,355"
      fill="#FFF100"
      stroke="#64748b" stroke-width="0.5"
    />
    <polygon 
      points="287.176,355 318.352,364 318.352,382 287.176,373"
      fill="#d9cd00"
      stroke="#64748b" stroke-width="0.5"
    />
    <polygon 
      points="318.352,364 349.52799999999996,355 349.52799999999996,373 318.352,382"
      fill="#b3a900"
      stroke="#64748b" stroke-width="0.5"
    /></g>
    <g>
    <polygon 
      points="380.704,346 411.88,355 380.704,364 349.528,355"
      fill="#627EEA"
      stroke="#64748b" stroke-width="0.5"
    />
    <polygon 
      points="349.528,355 380.704,364 380.704,382 349.528,373"
      fill="#5469c7"
      stroke="#64748b" stroke-width="0.5"
    />
    <polygon 
      points="380.704,364 411.88,355 411.88,373 380.704,382"
      fill="#4254a4"
      stroke="#64748b" stroke-width="0.5"
    /></g>
    <g>
    <polygon 
      points="443.056,346 474.23199999999997,355 443.056,364 411.88,355"
      fill="#627EEA"
      stroke="#64748b" stroke-width="0.5"
    />
    <polygon 
      points="411.88,355 443.056,364 443.056,382 411.88,373"
      fill="#5469c7"
      stroke="#64748b" stroke-width="0.5"
    />
    <polygon 
      points="443.056,364 474.23199999999997,355 474.23199999999997,373 443.056,382"
      fill="#4254a4"
      stroke="#64748b" stroke-width="0.5"
    /></g>
    <g>
    <polygon 
      points="100.12000000000002,373 131.29600000000002,382 100.12000000000002,391 68.94400000000002,382"
      fill="#0052FF"
      stroke="#64748b" stroke-width="0.5"
    />
    <polygon 
      points="68.94400000000002,382 100.12000000000002,391 100.12000000000002,409 68.94400000000002,400"
      fill="#0046d9"
      stroke="#64748b" stroke-width="0.5"
    />
    <polygon 
      points="100.12000000000002,391 131.29600000000002,382 131.29600000000002,400 100.12000000000002,409"
      fill="#003ab3"
      stroke="#64748b" stroke-width="0.5"
    /></g>
    <g>
    <polygon 
      points="162.47199999999998,373 193.64799999999997,382 162.47199999999998,391 131.296,382"
      fill="#627EEA"
      stroke="#64748b" stroke-width="0.5"
    />
    <polygon 
      points="131.296,382 162.47199999999998,391 162.47199999999998,409 131.296,400"
      fill="#5469c7"
      stroke="#64748b" stroke-width="0.5"
    />
    <polygon 
      points="162.47199999999998,391 193.64799999999997,382 193.64799999999997,400 162.47199999999998,409"
      fill="#4254a4"
      stroke="#64748b" stroke-width="0.5"
    /></g>
    <g>
    <polygon 
      points="224.82399999999998,373 255.99999999999997,382 224.82399999999998,391 193.648,382"
      fill="#627EEA"
      stroke="#64748b" stroke-width="0.5"
    />
    <polygon 
      points="193.648,382 224.82399999999998,391 224.82399999999998,409 193.648,400"
      fill="#5469c7"
      stroke="#64748b" stroke-width="0.5"
    />
    <polygon 
      points="224.82399999999998,391 255.99999999999997,382 255.99999999999997,400 224.82399999999998,409"
      fill="#4254a4"
      stroke="#64748b" stroke-width="0.5"
    /></g>
    <g>
    <polygon 
      points="287.176,373 318.352,382 287.176,391 256,382"
      fill="#FF0420"
      stroke="#64748b" stroke-width="0.5"
    />
    <polygon 
      points="256,382 287.176,391 287.176,409 256,400"
      fill="#d9031b"
      stroke="#64748b" stroke-width="0.5"
    />
    <polygon 
      points="287.176,391 318.352,382 318.352,400 287.176,409"
      fill="#b30316"
      stroke="#64748b" stroke-width="0.5"
    /></g>
    <g>
    <polygon 
      points="349.52799999999996,373 380.70399999999995,382 349.52799999999996,391 318.352,382"
      fill="#627EEA"
      stroke="#64748b" stroke-width="0.5"
    />
    <polygon 
      points="318.352,382 349.52799999999996,391 349.52799999999996,409 318.352,400"
      fill="#5469c7"
      stroke="#64748b" stroke-width="0.5"
    />
    <polygon 
      points="349.52799999999996,391 380.70399999999995,382 380.70399999999995,400 349.52799999999996,409"
      fill="#4254a4"
      stroke="#64748b" stroke-width="0.5"
    /></g>
    <g>
    <polygon 
      points="411.88,373 443.056,382 411.88,391 380.704,382"
      fill="#627EEA"
      stroke="#64748b" stroke-width="0.5"
    />
    <polygon 
      points="380.704,382 411.88,391 411.88,409 380.704,400"
      fill="#5469c7"
      stroke="#64748b" stroke-width="0.5"
    />
    <polygon 
      points="411.88,391 443.056,382 443.056,400 411.88,409"
      fill="#4254a4"
      stroke="#64748b" stroke-width="0.5"
    /></g>
    <g>
    <polygon 
      points="131.296,400 162.47199999999998,409 131.296,418 100.11999999999999,409"
      fill="#FFF100"
      stroke="#64748b" stroke-width="0.5"
    />
    <polygon 
      points="100.11999999999999,409 131.296,418 131.296,436 100.11999999999999,427"
      fill="#d9cd00"
      stroke="#64748b" stroke-width="0.5"
    />
    <polygon 
      points="131.296,418 162.47199999999998,409 162.47199999999998,427 131.296,436"
      fill="#b3a900"
      stroke="#64748b" stroke-width="0.5"
    /></g>
    <g>
    <polygon 
      points="193.648,400 224.82399999999998,409 193.648,418 162.472,409"
      fill="#FFF100"
      stroke="#64748b" stroke-width="0.5"
    />
    <polygon 
      points="162.472,409 193.648,418 193.648,436 162.472,427"
      fill="#d9cd00"
      stroke="#64748b" stroke-width="0.5"
    />
    <polygon 
      points="193.648,418 224.82399999999998,409 224.82399999999998,427 193.648,436"
      fill="#b3a900"
      stroke="#64748b" stroke-width="0.5"
    /></g>
    <g>
    <polygon 
      points="256,400 287.176,409 256,418 224.824,409"
      fill="#627EEA"
      stroke="#64748b" stroke-width="0.5"
    />
    <polygon 
      points="224.824,409 256,418 256,436 224.824,427"
      fill="#5469c7"
      stroke="#64748b" stroke-width="0.5"
    />
    <polygon 
      points="256,418 287.176,409 287.176,427 256,436"
      fill="#4254a4"
      stroke="#64748b" stroke-width="0.5"
    /></g>
    <g>
    <polygon 
      points="318.352,400 349.52799999999996,409 318.352,418 287.176,409"
      fill="#28A0F0"
      stroke="#64748b" stroke-width="0.5"
    />
    <polygon 
      points="287.176,409 318.352,418 318.352,436 287.176,427"
      fill="#2288cc"
      stroke="#64748b" stroke-width="0.5"
    />
    <polygon 
      points="318.352,418 349.52799999999996,409 349.52799999999996,427 318.352,436"
      fill="#1c70a8"
      stroke="#64748b" stroke-width="0.5"
    /></g>
    <g>
    <polygon 
      points="380.704,400 411.88,409 380.704,418 349.528,409"
      fill="#FFF100"
      stroke="#64748b" stroke-width="0.5"
    />
    <polygon 
      points="349.528,409 380.704,418 380.704,436 349.528,427"
      fill="#d9cd00"
      stroke="#64748b" stroke-width="0.5"
    />
    <polygon 
      points="380.704,418 411.88,409 411.88,427 380.704,436"
      fill="#b3a900"
      stroke="#64748b" stroke-width="0.5"
    /></g>
    <g>
    <polygon 
      points="162.47199999999998,427 193.64799999999997,436 162.47199999999998,445 131.296,436"
      fill="#627EEA"
      stroke="#64748b" stroke-width="0.5"
    />
    <polygon 
      points="131.296,436 162.47199999999998,445 162.47199999999998,463 131.296,454"
      fill="#5469c7"
      stroke="#64748b" stroke-width="0.5"
    />
    <polygon 
      points="162.47199999999998,445 193.64799999999997,436 193.64799999999997,454 162.47199999999998,463"
      fill="#4254a4"
      stroke="#64748b" stroke-width="0.5"
    /></g>
    <g>
    <polygon 
      points="224.82399999999998,427 255.99999999999997,436 224.82399999999998,445 193.648,436"
      fill="#28A0F0"
      stroke="#64748b" stroke-width="0.5"
    />
    <polygon 
      points="193.648,436 224.82399999999998,445 224.82399999999998,463 193.648,454"
      fill="#2288cc"
      stroke="#64748b" stroke-width="0.5"
    />
    <polygon 
      points="224.82399999999998,445 255.99999999999997,436 255.99999999999997,454 224.82399999999998,463"
      fill="#1c70a8"
      stroke="#64748b" stroke-width="0.5"
    /></g>
    <g>
    <polygon 
      points="287.176,427 318.352,436 287.176,445 256,436"
      fill="#0052FF"
      stroke="#64748b" stroke-width="0.5"
    />
    <polygon 
      points="256,436 287.176,445 287.176,463 256,454"
      fill="#0046d9"
      stroke="#64748b" stroke-width="0.5"
    />
    <polygon 
      points="287.176,445 318.352,436 318.352,454 287.176,463"
      fill="#003ab3"
      stroke="#64748b" stroke-width="0.5"
    /></g>
    <g>
    <polygon 
      points="349.52799999999996,427 380.70399999999995,436 349.52799999999996,445 318.352,436"
      fill="#627EEA"
      stroke="#64748b" stroke-width="0.5"
    />
    <polygon 
      points="318.352,436 349.52799999999996,445 349.52799999999996,463 318.352,454"
      fill="#5469c7"
      stroke="#64748b" stroke-width="0.5"
    />
    <polygon 
      points="349.52799999999996,445 380.70399999999995,436 380.70399999999995,454 349.52799999999996,463"
      fill="#4254a4"
      stroke="#64748b" stroke-width="0.5"
    /></g>
    <g>
    <polygon 
      points="193.648,454 224.82399999999998,463 193.648,472 162.472,463"
      fill="#627EEA"
      stroke="#64748b" stroke-width="0.5"
    />
    <polygon 
      points="162.472,463 193.648,472 193.648,490 162.472,481"
      fill="#5469c7"
      stroke="#64748b" stroke-width="0.5"
    />
    <polygon 
      points="193.648,472 224.82399999999998,463 224.82399999999998,481 193.648,490"
      fill="#4254a4"
      stroke="#64748b" stroke-width="0.5"
    /></g>
    <g>
    <polygon 
      points="256,454 287.176,463 256,472 224.824,463"
      fill="#627EEA"
      stroke="#64748b" stroke-width="0.5"
    />
    <polygon 
      points="224.824,463 256,472 256,490 224.824,481"
      fill="#5469c7"
      stroke="#64748b" stroke-width="0.5"
    />
    <polygon 
      points="256,472 287.176,463 287.176,481 256,490"
      fill="#4254a4"
      stroke="#64748b" stroke-width="0.5"
    /></g>
    <g>
    <polygon 
      points="318.352,454 349.52799999999996,463 318.352,472 287.176,463"
      fill="#FFF100"
      stroke="#64748b" stroke-width="0.5"
    />
    <polygon 
      points="287.176,463 318.352,472 318.352,490 287.176,481"
      fill="#d9cd00"
      stroke="#64748b" stroke-width="0.5"
    />
    <polygon 
      points="318.352,472 349.52799999999996,463 349.52799999999996,481 318.352,490"
      fill="#b3a900"
      stroke="#64748b" stroke-width="0.5"
    /></g>
  </g>
</svg>